<svg xmlns="http://www.w3.org/2000/svg" viewBox="0 0 512 512">
  <defs>
    <rect id="rect" x="0" y="56" width="512" height="400" fill="none"/>
    <clipPath id="clip">
      <use href="#rect"/>
    </clipPath>
  </defs>

  <rect x="0" y="0" width="100%" height="100%" fill="#4AE5B3"/>
  <!--<rect x="256" y="64" width="150%" height="128" fill="#A5F1D9" transform="rotate(45,256,128)"/>
  <rect x="320" y="256" width="150%" height="128" fill="#A5F1D9" transform="rotate(45,320,256)"/>
  <rect x="320" y="384" width="150%" height="128" fill="#A5F1D9" transform="rotate(45,320,384)"/>
  <circle cx="256" cy="128" r="64" fill="#006544"/>
  <rect x="202" y="256" width="108" height="100%" fill="#006544"/>-->

  <g transform-origin="256 256" transform="scale(.8)">
    <g id="coisillon-et-ombres" transform="translate(48,48) scale(.8)">
      <!-- OMBRES -->
      <rect x="92" y="152" width="700" height="64" fill="#A5F1D9" transform="rotate(45,92,216)"/>
      <rect x="152" y="152" width="700" height="64" fill="#A5F1D9" transform="rotate(45,152,216)"/>
      <rect x="212" y="152" width="700" height="64" fill="#A5F1D9" transform="rotate(45,212,216)"/>
      <rect x="262" y="152" width="700" height="64" fill="#A5F1D9" transform="rotate(45,262,216)"/>
      <rect x="322" y="152" width="700" height="64" fill="#A5F1D9" transform="rotate(45,322,216)"/>
      <rect x="382" y="152" width="700" height="64" fill="#A5F1D9" transform="rotate(45,382,216)"/>
      <rect x="444" y="152" width="700" height="64" fill="#A5F1D9" transform="rotate(45,444,152)"/>
      <rect x="64" y="296" width="700" height="64" fill="#A5F1D9" transform="rotate(45,64,360)"/>
      <rect x="124" y="296" width="700" height="64" fill="#A5F1D9" transform="rotate(45,124,360)"/>
      <rect x="184" y="296" width="700" height="64" fill="#A5F1D9" transform="rotate(45,184,360)"/>
      <rect x="392" y="56" width="700" height="64" fill="#A5F1D9" transform="rotate(45,392,56)"/>
      <rect x="362" y="86" width="700" height="64" fill="#A5F1D9" transform="rotate(45,362,86)"/>
      <rect x="252" y="56" width="700" height="64" fill="#A5F1D9" transform="rotate(45,252,56)"/>
      <rect x="222" y="86" width="700" height="64" fill="#A5F1D9" transform="rotate(45,222,86)"/>
      <rect x="116" y="392" width="700" height="64" fill="#A5F1D9" transform="rotate(45,116,456)"/>

      <!-- CROISILLON -->
      <g clip-path="url(#clip)">
        <rect x="92" y="152" width="352" height="64" fill="#006544"/>
        <rect x="64" y="296" width="352" height="64" fill="#006544"/>
        <rect x="152" y="-64" width="64" height="640" fill="#006544" transform="rotate(10,192,256)"/>
        <rect x="292" y="-64" width="64" height="640" fill="#006544" transform="rotate(10,320,256)"/>
      </g>
    </g>
  </g>
</svg>